<svg width="32" height="32" viewBox="0 0 32 32" fill="none" xmlns="http://www.w3.org/2000/svg">
<path d="M23.4374 5.90917L20.7707 4.50917C18.4294 3.28117 17.2587 2.6665 16.0001 2.6665C14.7414 2.6665 13.5707 3.27984 11.2294 4.50917L10.8014 4.7345L22.6987 11.5332L28.0534 8.85317C27.1921 7.87717 25.8027 7.14784 23.4374 5.9065M28.9974 10.6185L23.6667 13.2852V17.3332C23.6667 17.5984 23.5614 17.8527 23.3739 18.0403C23.1863 18.2278 22.932 18.3332 22.6667 18.3332C22.4015 18.3332 22.1472 18.2278 21.9596 18.0403C21.7721 17.8527 21.6667 17.5984 21.6667 17.3332V14.2852L17.0001 16.6185V29.2052C17.9574 28.9665 19.0467 28.3958 20.7707 27.4905L23.4374 26.0905C26.3054 24.5852 27.7401 23.8332 28.5374 22.4798C29.3334 21.1278 29.3334 19.4438 29.3334 16.0798V15.9238C29.3334 13.3998 29.3334 11.8212 28.9974 10.6185ZM15.0001 29.2052V16.6185L3.00275 10.6185C2.66675 11.8212 2.66675 13.3998 2.66675 15.9212V16.0772C2.66675 19.4438 2.66675 21.1278 3.46275 22.4798C4.26008 23.8332 5.69475 24.5865 8.56275 26.0918L11.2294 27.4905C12.9534 28.3958 14.0427 28.9665 15.0001 29.2052ZM3.94675 8.8545L16.0001 14.8812L20.5481 12.6078L8.70008 5.83717L8.56275 5.90917C6.19875 7.14917 4.80808 7.8785 3.94675 8.85584" fill="white"/>
</svg>
