<svg width="107" height="48" viewBox="0 0 107 48" fill="none" xmlns="http://www.w3.org/2000/svg">
<path d="M68.5422 0.488281H84.449V1.4647H79.7653V30.5798H81.356C83.8599 30.5798 85.8482 29.8105 87.3211 28.2719C88.8234 26.7333 90.3404 24.3662 91.8722 21.1707H92.8001L91.9605 31.5562H68.5422V30.5798H71.1492V1.4647H68.5422V0.488281Z" fill="white"/>
<path d="M57.5819 17.8419V14.5576C57.5819 9.14286 57.3168 5.72538 56.7866 4.30513C56.1974 2.67776 55.3579 1.67175 54.268 1.2871C53.6494 1.05039 52.8983 0.932038 52.0145 0.932038C51.1308 0.932038 50.365 1.05039 49.7169 1.2871C49.0983 1.52381 48.5828 1.93805 48.1704 2.52982C47.758 3.12159 47.4193 3.74295 47.1541 4.3939C46.9185 5.04484 46.727 5.96209 46.5797 7.14563C46.403 8.86177 46.3146 11.3916 46.3146 14.7351V17.9307C46.3146 21.5405 46.4472 24.1147 46.7123 25.6533C47.0069 27.1623 47.3603 28.2423 47.7727 28.8932C48.6859 30.343 50.0998 31.068 52.0145 31.068C54.3417 31.068 55.844 30.0915 56.5215 28.1387C57.2284 26.1563 57.5819 22.724 57.5819 17.8419ZM51.9262 32C47.0069 32 43.3247 30.6685 40.8798 28.0055C38.4643 25.313 37.2566 21.4369 37.2566 16.3773C37.2566 11.288 38.5527 7.29357 41.1449 4.3939C43.7666 1.46463 47.4634 0 52.2355 0C57.0075 0 60.6013 1.39066 63.0167 4.17198C65.4617 6.92372 66.6841 10.8442 66.6841 15.9334C66.6841 21.0227 65.4469 24.9727 62.9726 27.7836C60.5276 30.5945 56.8455 32 51.9262 32Z" fill="white"/>
<path d="M21.4948 0.488281H35.8551V1.33156H33.4249V20.5049C33.4249 24.4994 32.5264 27.4138 30.7295 29.2483C28.9327 31.0532 26.2373 31.9557 22.6436 31.9557C20.2576 31.9557 18.3576 31.4971 16.9437 30.5798C15.5592 29.6626 14.8669 28.3755 14.8669 26.7185C14.8669 25.4462 15.2204 24.455 15.9274 23.7449C16.6344 23.0052 17.5917 22.6353 18.7995 22.6353C20.0366 22.6353 20.9498 22.946 21.539 23.5673C22.1576 24.1887 22.4668 24.9432 22.4668 25.8309C22.4668 26.6889 22.3048 27.5618 21.9808 28.4494H20.2576C19.9925 28.8933 19.8599 29.3223 19.8599 29.7365C19.8599 30.1212 20.0514 30.4615 20.4343 30.7574C20.8467 31.0236 21.3769 31.1568 22.025 31.1568C23.2033 31.1568 23.9544 30.6982 24.2785 29.7809C24.6319 28.8341 24.8087 26.8073 24.8087 23.7005V1.33156H21.4948V0.488281Z" fill="white"/>
<path d="M0 0.488281H13.4766V1.33156H11.0464V30.713H13.4766V31.5562H0V30.713H2.4302V1.33156H0V0.488281Z" fill="white"/>
<path d="M0.996 47L0.996 38.06H4.152C4.744 38.06 5.264 38.172 5.712 38.396C6.16 38.62 6.508 38.94 6.756 39.356C7.012 39.772 7.14 40.26 7.14 40.82C7.14 41.38 7.012 41.868 6.756 42.284C6.508 42.692 6.16 43.012 5.712 43.244C5.272 43.468 4.752 43.58 4.152 43.58H2.172V47H0.996ZM2.172 42.5H4.188C4.548 42.5 4.86 42.432 5.124 42.296C5.388 42.16 5.592 41.964 5.736 41.708C5.88 41.452 5.952 41.156 5.952 40.82C5.952 40.476 5.88 40.18 5.736 39.932C5.592 39.676 5.388 39.48 5.124 39.344C4.86 39.208 4.548 39.14 4.188 39.14H2.172V42.5ZM11.9704 47.144C11.3224 47.144 10.7464 47.008 10.2424 46.736C9.74638 46.464 9.35838 46.092 9.07838 45.62C8.80638 45.14 8.67038 44.596 8.67038 43.988V38.06H9.85838V43.964C9.85838 44.372 9.94638 44.736 10.1224 45.056C10.3064 45.368 10.5544 45.612 10.8664 45.788C11.1864 45.964 11.5544 46.052 11.9704 46.052C12.3864 46.052 12.7504 45.964 13.0624 45.788C13.3824 45.612 13.6304 45.368 13.8064 45.056C13.9904 44.736 14.0824 44.372 14.0824 43.964V38.06H15.2704V43.988C15.2704 44.596 15.1304 45.14 14.8504 45.62C14.5784 46.092 14.1944 46.464 13.6984 46.736C13.2024 47.008 12.6264 47.144 11.9704 47.144ZM18.763 47V39.14H16.339V38.06H22.339V39.14H19.951V47H18.763ZM22.0109 47L25.2149 38.06H26.6069L29.8109 47H28.5509L27.8189 44.9H24.0029L23.2709 47H22.0109ZM24.3749 43.82H27.4469L25.7429 38.912H26.0789L24.3749 43.82ZM30.9374 47V38.06H34.0934C34.6854 38.06 35.2054 38.172 35.6534 38.396C36.1014 38.62 36.4494 38.94 36.6974 39.356C36.9534 39.772 37.0814 40.26 37.0814 40.82C37.0814 41.452 36.9214 41.988 36.6014 42.428C36.2814 42.868 35.8494 43.184 35.3054 43.376L37.3814 47H36.0134L33.8294 43.124L34.6094 43.58H32.1134V47H30.9374ZM32.1134 42.5H34.1294C34.4814 42.5 34.7894 42.432 35.0534 42.296C35.3174 42.16 35.5214 41.964 35.6654 41.708C35.8174 41.452 35.8934 41.156 35.8934 40.82C35.8934 40.476 35.8174 40.18 35.6654 39.932C35.5214 39.676 35.3174 39.48 35.0534 39.344C34.7894 39.208 34.4814 39.14 34.1294 39.14H32.1134V42.5ZM40.7929 47V38.06H44.5489C45.0849 38.06 45.5449 38.156 45.9289 38.348C46.3209 38.54 46.6209 38.812 46.8289 39.164C47.0449 39.508 47.1529 39.92 47.1529 40.4C47.1529 40.84 47.0369 41.24 46.8049 41.6C46.5809 41.952 46.2489 42.228 45.8089 42.428L45.7969 41.984C46.1809 42.128 46.4969 42.32 46.7449 42.56C47.0009 42.792 47.1929 43.064 47.3209 43.376C47.4489 43.68 47.5129 44.004 47.5129 44.348C47.5129 45.172 47.2489 45.82 46.7209 46.292C46.1929 46.764 45.4729 47 44.5609 47H40.7929ZM41.9689 45.92H44.6089C45.1289 45.92 45.5449 45.78 45.8569 45.5C46.1689 45.22 46.3249 44.84 46.3249 44.36C46.3249 43.88 46.1689 43.5 45.8569 43.22C45.5449 42.932 45.1289 42.788 44.6089 42.788H41.9689V45.92ZM41.9689 41.732H44.5249C44.9569 41.732 45.3049 41.608 45.5689 41.36C45.8329 41.104 45.9649 40.78 45.9649 40.388C45.9649 39.98 45.8329 39.668 45.5689 39.452C45.3049 39.236 44.9569 39.128 44.5249 39.128H41.9689V41.732ZM48.2375 47L51.4415 38.06H52.8335L56.0375 47H54.7775L54.0455 44.9H50.2295L49.4975 47H48.2375ZM50.6015 43.82H53.6735L51.9695 38.912H52.3055L50.6015 43.82ZM57.164 47V38.06H58.34V47H57.164ZM60.328 47V38.06H61.504V43.088L61.216 42.968L65.488 38.06H66.964L63.376 42.2L63.436 41.36L67.144 47H65.74L62.908 42.752L61.504 44.36V47H60.328ZM71.9076 47V39.14H69.4836V38.06H75.4836V39.14H73.0956V47H71.9076ZM76.6171 47V38.06H82.4371V39.14H77.7931V41.972H82.1971V43.052H77.7931V45.92H82.4371V47H76.6171ZM83.8944 47V38.06H87.0504C87.6424 38.06 88.1624 38.172 88.6104 38.396C89.0584 38.62 89.4064 38.94 89.6544 39.356C89.9104 39.772 90.0384 40.26 90.0384 40.82C90.0384 41.452 89.8784 41.988 89.5584 42.428C89.2384 42.868 88.8064 43.184 88.2624 43.376L90.3384 47H88.9704L86.7864 43.124L87.5664 43.58H85.0704V47H83.8944ZM85.0704 42.5H87.0864C87.4384 42.5 87.7464 42.432 88.0104 42.296C88.2744 42.16 88.4784 41.964 88.6224 41.708C88.7744 41.452 88.8504 41.156 88.8504 40.82C88.8504 40.476 88.7744 40.18 88.6224 39.932C88.4784 39.676 88.2744 39.48 88.0104 39.344C87.7464 39.208 87.4384 39.14 87.0864 39.14H85.0704V42.5ZM94.9157 47.144C94.2677 47.144 93.6917 47.008 93.1877 46.736C92.6917 46.464 92.3037 46.092 92.0237 45.62C91.7517 45.14 91.6157 44.596 91.6157 43.988V38.06H92.8037V43.964C92.8037 44.372 92.8917 44.736 93.0677 45.056C93.2517 45.368 93.4997 45.612 93.8117 45.788C94.1317 45.964 94.4997 46.052 94.9157 46.052C95.3317 46.052 95.6957 45.964 96.0077 45.788C96.3277 45.612 96.5757 45.368 96.7517 45.056C96.9357 44.736 97.0277 44.372 97.0277 43.964V38.06H98.2157V43.988C98.2157 44.596 98.0757 45.14 97.7957 45.62C97.5237 46.092 97.1397 46.464 96.6437 46.736C96.1477 47.008 95.5717 47.144 94.9157 47.144ZM103.22 47.144C102.652 47.144 102.132 47.04 101.66 46.832C101.188 46.616 100.788 46.324 100.46 45.956C100.132 45.588 99.8963 45.176 99.7523 44.72L100.772 44.3C100.988 44.876 101.308 45.32 101.732 45.632C102.164 45.936 102.668 46.088 103.244 46.088C103.596 46.088 103.904 46.032 104.168 45.92C104.432 45.808 104.636 45.652 104.78 45.452C104.932 45.244 105.008 45.004 105.008 44.732C105.008 44.356 104.9 44.06 104.684 43.844C104.476 43.62 104.168 43.452 103.76 43.34L102.116 42.836C101.468 42.636 100.972 42.32 100.628 41.888C100.284 41.456 100.112 40.96 100.112 40.4C100.112 39.912 100.228 39.484 100.46 39.116C100.7 38.74 101.028 38.448 101.444 38.24C101.868 38.024 102.348 37.916 102.884 37.916C103.42 37.916 103.904 38.012 104.336 38.204C104.776 38.396 105.148 38.656 105.452 38.984C105.756 39.304 105.98 39.672 106.124 40.088L105.116 40.508C104.924 40.004 104.636 39.624 104.252 39.368C103.868 39.104 103.416 38.972 102.896 38.972C102.576 38.972 102.292 39.028 102.044 39.14C101.804 39.244 101.616 39.4 101.48 39.608C101.352 39.808 101.288 40.048 101.288 40.328C101.288 40.656 101.392 40.948 101.6 41.204C101.808 41.46 102.124 41.656 102.548 41.792L104.048 42.236C104.752 42.452 105.284 42.76 105.644 43.16C106.004 43.56 106.184 44.056 106.184 44.648C106.184 45.136 106.056 45.568 105.8 45.944C105.552 46.32 105.204 46.616 104.756 46.832C104.316 47.04 103.804 47.144 103.22 47.144Z" fill="white"/>
</svg>
